<?xml version="1.0" standalone="no"?>
<!DOCTYPE svg PUBLIC "-//W3C//DTD SVG 20010904//EN"
 "http://www.w3.org/TR/2001/REC-SVG-20010904/DTD/svg10.dtd">
<svg version="1.0" xmlns="http://www.w3.org/2000/svg"
 width="512.000000pt" height="512.000000pt" viewBox="0 0 512.000000 512.000000"
 preserveAspectRatio="xMidYMid meet">
<metadata>
Created by potrace 1.11, written by Peter Selinger 2001-2013
</metadata>
<g transform="translate(0.000000,512.000000) scale(0.100000,-0.100000)"
fill="#000000" stroke="none">
<path d="M3720 4095 l-485 -485 -337 337 -338 338 -1280 0 c-703 0 -1276 -3
-1272 -6 4 -4 88 -75 187 -159 99 -84 196 -167 216 -184 20 -17 60 -51 89 -76
58 -49 249 -211 290 -247 14 -11 135 -114 270 -229 135 -114 247 -210 250
-213 3 -3 28 -24 55 -46 28 -22 55 -44 60 -50 6 -7 71 -63 145 -126 74 -63
144 -122 155 -132 11 -10 102 -89 202 -175 l183 -156 0 -975 0 -976 1050 1050
1050 1050 2 525 3 525 448 0 c246 0 447 2 447 6 0 6 -887 883 -898 887 -4 1
-225 -216 -492 -483z"/>
</g>
</svg>
